<svg width="112" height="24" viewBox="0 0 112 24" xmlns="http://www.w3.org/2000/svg">
    <defs>
        <linearGradient x1="30.843%" y1="37.842%" x2="57.158%" y2="58.147%" id="pf9dhgenqa">
            <stop stop-color="#FFF" stop-opacity=".54" offset="0%"/>
            <stop stop-color="#FFF" offset="85%"/>
        </linearGradient>
        <linearGradient x1="18.472%" y1="37.615%" x2="91.753%" y2="69.53%" id="tldliq0u3b">
            <stop stop-color="#FFF" offset="39.583%"/>
            <stop stop-color="#FFF" stop-opacity=".54" offset="100%"/>
        </linearGradient>
    </defs>
    <g fill-rule="nonzero" fill="none">
        <path d="M89.481 8.542c.135.596.436 1.143.87 1.576l-3.738 2.7a7.815 7.815 0 0 1-1.784-4.25 7.794 7.794 0 0 1 4.23-7.716 7.847 7.847 0 0 1 4.546-.79c-5.642 3.325-4.124 8.48-4.124 8.48zM91.54 23.833a4.584 4.584 0 0 1-1.85-2.756 4.566 4.566 0 0 1 .5-3.277l5.277-8.34a3.24 3.24 0 0 0 .32-2.46 3.252 3.252 0 0 0-1.514-1.97 3.153 3.153 0 0 0-.834-.322L95.616.617c.329.122.65.267.96.433a7.854 7.854 0 0 1 3.663 4.76 7.818 7.818 0 0 1-.78 5.947l-7.342 11.91a.438.438 0 0 1-.577.166z" fill="#FFF"/>
        <path d="M89.834 6.214a3.211 3.211 0 0 0-.349 2.33S87.966 3.39 93.607.063a7.882 7.882 0 0 1 2.01.554L93.44 4.706a3.249 3.249 0 0 0-2.057.15 3.233 3.233 0 0 0-1.55 1.358z" fill="url(#pf9dhgenqa)"/>
        <path d="M91.028 10.64c.747.429 1.634.545 2.467.323a3.248 3.248 0 0 0 1.973-1.508l-3.797 6.08c-1.026-.084-1.787-.299-2.696-.781a7.573 7.573 0 0 1-2.352-1.946l3.714-2.69c.199.203.446.377.69.521z" fill="url(#tldliq0u3b)"/>
        <path d="M.573 23.688v-3.04h6.483c.208 0 .39-.044.547-.13a.884.884 0 0 0 .39-.364.917.917 0 0 0 .156-.52.96.96 0 0 0-.156-.546.884.884 0 0 0-.39-.364.964.964 0 0 0-.547-.156h-2.5c-.85 0-1.623-.13-2.317-.39a3.667 3.667 0 0 1-1.64-1.3C.199 16.273 0 15.485 0 14.515c0-.745.182-1.42.547-2.027a4.259 4.259 0 0 1 1.51-1.481 4.057 4.057 0 0 1 2.109-.572h6.222v3.04H4.504c-.26 0-.494.087-.703.26a.87.87 0 0 0-.286.676c0 .277.095.511.286.702.191.173.426.26.703.26h2.5c.955 0 1.779.147 2.473.441a3.298 3.298 0 0 1 1.615 1.326c.381.606.572 1.403.572 2.391a4.04 4.04 0 0 1-.572 2.105 4.411 4.411 0 0 1-1.537 1.507c-.642.364-1.362.546-2.16.546H.572zM20.364 23.688c-1.51 0-2.829-.286-3.957-.858-1.111-.589-1.979-1.386-2.604-2.39-.607-1.005-.91-2.132-.91-3.38 0-1.402.286-2.624.858-3.664.573-1.04 1.354-1.845 2.343-2.417.99-.571 2.11-.857 3.36-.857 1.492 0 2.698.312 3.618.936a5.44 5.44 0 0 1 2.057 2.52c.434 1.04.651 2.2.651 3.483a9.1 9.1 0 0 1-.026.624 2.8 2.8 0 0 1-.078.52h-8.983c.14.537.373.987.703 1.35.347.365.773.642 1.276.833.52.173 1.102.26 1.744.26h3.698v3.04h-3.75zm-3.697-7.875h5.546a4.705 4.705 0 0 0-.182-.91 2.685 2.685 0 0 0-.365-.779 2.456 2.456 0 0 0-.547-.571 2.393 2.393 0 0 0-.728-.365 3.056 3.056 0 0 0-.912-.13 2.83 2.83 0 0 0-1.171.235c-.33.155-.608.363-.834.623-.225.26-.408.555-.546.884-.122.33-.209.667-.26 1.013zM33.064 24a3.847 3.847 0 0 1-2.135-.624 3.253 3.253 0 0 1-1.302-1.637l-3.801-11.305h3.88l3.071 9.85a.39.39 0 0 0 .13.156.32.32 0 0 0 .183.052c.07 0 .13-.018.182-.052a.233.233 0 0 0 .13-.156l3.098-9.85h3.802L36.5 21.713c-.242.676-.685 1.23-1.327 1.663a3.722 3.722 0 0 1-2.11.624zM47.66 23.688c-1.51 0-2.829-.286-3.957-.858-1.11-.589-1.979-1.386-2.603-2.39-.608-1.005-.912-2.132-.912-3.38 0-1.402.287-2.624.86-3.664.572-1.04 1.353-1.845 2.343-2.417.99-.571 2.109-.857 3.359-.857 1.492 0 2.699.312 3.618.936a5.439 5.439 0 0 1 2.057 2.52c.434 1.04.651 2.2.651 3.483 0 .173-.009.381-.026.624a2.776 2.776 0 0 1-.078.52H43.99c.139.537.373.987.702 1.35.348.365.773.642 1.276.833.521.173 1.102.26 1.745.26h3.697v3.04h-3.75zm-3.696-7.875h5.545a4.705 4.705 0 0 0-.182-.91 2.702 2.702 0 0 0-.364-.779 2.456 2.456 0 0 0-.547-.571 2.393 2.393 0 0 0-.73-.365 3.056 3.056 0 0 0-.91-.13 2.83 2.83 0 0 0-1.172.235c-.33.155-.608.363-.833.623-.226.26-.408.555-.547.884a5.12 5.12 0 0 0-.26 1.013zM54.678 23.688v-9.486c0-1.178.33-2.096.99-2.755.676-.676 1.605-1.013 2.785-1.013h3.671v3.04h-3.046a.87.87 0 0 0-.599.234.81.81 0 0 0-.234.598v9.382h-3.567zM68.54 24c-1.214 0-2.273-.312-3.176-.935-.902-.624-1.605-1.456-2.108-2.495-.487-1.057-.73-2.218-.73-3.483 0-1.3.278-2.478.834-3.534a6.27 6.27 0 0 1 2.447-2.495c1.059-.624 2.326-.936 3.801-.936 1.493 0 2.752.312 3.776.936a6.187 6.187 0 0 1 2.343 2.52c.538 1.057.807 2.227.807 3.509v6.601h-3.567V21.48h-.052c-.26.468-.59.892-.99 1.274-.381.38-.85.684-1.405.91-.556.224-1.215.337-1.98.337zm1.016-3.04c.695 0 1.293-.174 1.797-.52a3.266 3.266 0 0 0 1.145-1.404 4.747 4.747 0 0 0 .417-2.001c0-.728-.139-1.377-.417-1.95a3.265 3.265 0 0 0-1.145-1.403c-.504-.346-1.102-.52-1.797-.52-.711 0-1.328.174-1.848.52a3.451 3.451 0 0 0-1.172 1.404c-.26.572-.39 1.221-.39 1.949s.13 1.395.39 2.001a3.453 3.453 0 0 0 1.172 1.404c.52.346 1.137.52 1.848.52zM79.13 23.688V4.716h3.567v18.972zM100.908 23.688v-3.04h6.483c.209 0 .39-.044.547-.13a.883.883 0 0 0 .39-.364.915.915 0 0 0 .157-.52.96.96 0 0 0-.156-.546.882.882 0 0 0-.39-.363.963.963 0 0 0-.548-.157h-2.5c-.85 0-1.622-.13-2.316-.39a3.671 3.671 0 0 1-1.64-1.299c-.4-.606-.6-1.395-.6-2.365 0-.745.183-1.42.547-2.027a4.263 4.263 0 0 1 1.51-1.481 4.057 4.057 0 0 1 2.11-.572h6.222v3.04h-5.884c-.26 0-.495.087-.703.26a.87.87 0 0 0-.287.676c0 .277.096.512.287.702.19.173.425.26.703.26h2.5c.954 0 1.779.147 2.473.442a3.296 3.296 0 0 1 1.614 1.325c.382.607.573 1.404.573 2.391a4.04 4.04 0 0 1-.573 2.105 4.41 4.41 0 0 1-1.536 1.507c-.642.365-1.363.546-2.161.546h-6.822z" fill="#FFF"/>
    </g>
</svg>
